<?xml version="1.0" encoding="iso-8859-1"?>
<!-- Generator: Adobe Illustrator 19.0.0, SVG Export Plug-In . SVG Version: 6.00 Build 0)  -->
<svg version="1.1" id="Capa_1" xmlns="http://www.w3.org/2000/svg" xmlns:xlink="http://www.w3.org/1999/xlink" x="0px" y="0px"
	 viewBox="0 0 320 320" style="enable-background:new 0 0 320 320;" xml:space="preserve">
<g>
	<g>
		<g>
			<circle cx="270" cy="84" r="12.8"/>
			<circle cx="230.8" cy="84" r="12.8"/>
			<path d="M57.2,90h89.2c3.2,0,6-2.8,6-6c0-3.2-2.8-6-6-6H57.2c-3.2,0-6,2.8-6,6C51.2,87.2,54,90,57.2,90z"/>
			<circle cx="270" cy="159.6" r="12.8"/>
			<circle cx="230.8" cy="159.6" r="12.8"/>
			<path d="M146.4,153.6H57.2c-3.2,0-6,2.8-6,6s2.8,6,6,6h89.2c3.2,0,6-2.8,6-6S149.6,153.6,146.4,153.6z"/>
			<path d="M320,160c0-16-10-30-25.2-37.6c15.2-7.6,25.2-21.6,25.2-37.6c0-24-22.8-43.6-51.2-43.6H51.2C23.2,41.2,0,60.8,0,84.8
				c0,16,10,30,25.2,37.6C10.4,129.6,0,143.6,0,159.6s10,30,25.2,37.6C10.4,204.8,0,218.8,0,235.2c0,24,22.8,43.6,51.2,43.6h217.6
				c28,0,51.2-19.6,51.2-43.6c0-16-10-30-25.2-37.6C310,190,320,176,320,160z M12,84c0-17.6,17.6-31.6,38.8-31.6h217.6
				c21.6,0,38.8,14.4,38.8,31.6c0,17.6-17.6,31.6-38.8,31.6H51.2C29.6,116,12,101.6,12,84z M307.6,234.8c0,17.6-17.6,31.6-38.8,31.6
				H51.2c-21.6,0-38.8-14.4-38.8-31.6c-0.4-17.2,17.2-31.6,38.8-31.6h217.6C290.4,203.2,307.6,217.6,307.6,234.8z M268.4,191.2H51.2
				c-21.6,0-39.2-14-39.2-31.6C12,142,29.6,128,50.8,128h217.6c21.6,0,38.8,14.4,38.8,31.6C307.2,177.2,289.6,191.2,268.4,191.2z"/>
			<circle cx="270" cy="235.2" r="12.8"/>
			<circle cx="230.8" cy="235.2" r="12.8"/>
			<path d="M146.4,229.2H57.2c-3.2,0-6,2.8-6,6s2.8,6,6,6h89.2c3.2,0,6-2.8,6-6S149.6,229.2,146.4,229.2z"/>
		</g>
	</g>
</g>
<g>
</g>
<g>
</g>
<g>
</g>
<g>
</g>
<g>
</g>
<g>
</g>
<g>
</g>
<g>
</g>
<g>
</g>
<g>
</g>
<g>
</g>
<g>
</g>
<g>
</g>
<g>
</g>
<g>
</g>
</svg>
