<svg height="277pt" viewBox="0 0 277 277.57316" width="277pt" xmlns="http://www.w3.org/2000/svg"><path d="m179.589844 36.535156c19.429687-.074218 37.746094 9.074219 49.359375 24.652344 1.65625 2.210938 4.789062 2.65625 7 1 2.207031-1.65625 2.65625-4.789062 1-7-22.417969-29.757812-63.9375-37.292969-95.382813-17.3125-31.445312 19.980469-42.257812 60.773438-24.835937 93.707031 17.421875 32.933594 57.226562 46.949219 91.4375 32.199219 34.214843-14.753906 51.347656-53.316406 39.359375-88.59375-.949219-2.519531-3.726563-3.835938-6.28125-2.972656-2.550782.859375-3.960938 3.59375-3.1875 6.171875 8.644531 25.398437-.097656 53.472656-21.636719 69.46875-21.539063 15.996093-50.941406 16.253906-72.757813.640625-21.8125-15.617188-31.050781-43.53125-22.855468-69.078125 8.195312-25.542969 31.949218-42.875 58.78125-42.882813zm0 0"/><path d="m179.589844.015625c-34.925782.0117188-67.21875 18.554687-84.832032 48.710937-17.617187 30.152344-17.910156 67.390626-.769531 97.816407 1.359375 2.40625 4.410157 3.253906 6.8125 1.894531 2.40625-1.359375 3.253907-4.410156 1.894531-6.8125-22.84375-40.464844-10.4375-91.707031 28.378907-117.246094 38.820312-25.539062 90.785156-16.644531 118.902343 20.351563 28.117188 36.992187 22.773438 89.445312-12.226562 120.007812s-87.691406 28.796875-120.5625-4.046875c-1.949219-1.953125-5.117188-1.953125-7.066406 0l-13.480469 13.480469c-7.800781-4.679687-17.785156-3.46875-24.238281 2.945313l-66.300782 66.28125c-7.753906 7.769531-7.753906 20.347656 0 28.117187l.238282.242187c7.769531 7.753907 20.351562 7.753907 28.121094 0l66.296874-66.289062c6.394532-6.449219 7.589844-16.417969 2.898438-24.191406l10.074219-10.078125c32.550781 29.382812 80.628906 33.640625 117.835937 10.4375 37.207032-23.207031 54.535156-68.253907 42.472656-110.410157s-50.601562-71.2187495-94.449218-71.226562zm-85.90625 198.398437-66.292969 66.273438c-3.863281 3.851562-10.113281 3.851562-13.980469 0l-.238281-.238281c-3.859375-3.859375-3.859375-10.117188 0-13.976563l66.289063-66.292968c1.847656-1.859376 4.367187-2.902344 6.992187-2.894532 2.734375.015625 5.347656 1.148438 7.230469 3.136719 3.855468 3.859375 3.855468 10.113281 0 13.972656zm0 0"/></svg>